<svg width="40" height="40" viewBox="0 0 40 40" fill="none" xmlns="http://www.w3.org/2000/svg">
<circle cx="19.96" cy="19.96" r="14.96" fill="#B1E5FC" stroke="#B1E5FC" stroke-width="2.5"/>
<path fill-rule="evenodd" clip-rule="evenodd" d="M31.0239 27.7466L34.7538 31.4981C34.9161 31.6604 35.0073 31.8805 35.0073 32.1101C35.0073 32.3396 34.9161 32.5597 34.7538 32.722L32.7096 34.7545C32.5473 34.9168 32.3272 35.008 32.0977 35.008C31.8682 35.008 31.6481 34.9168 31.4858 34.7545L27.7525 31.0046L24.6346 34.7228L20.2277 21.1338C20.1267 20.822 20.2104 20.4798 20.4442 20.25C20.6779 20.0201 21.0214 19.9421 21.3315 20.0484L34.7621 24.6486L31.0239 27.7466Z" fill="#68CBF5" stroke="#68CBF5" stroke-width="2.5" stroke-linecap="round" stroke-linejoin="round"/>
<path d="M9.99316 19.3747H12.5025" stroke="#68CBF5" stroke-width="2.5" stroke-linecap="round" stroke-linejoin="round"/>
<path d="M19.9968 9.9957V12.4967" stroke="#68CBF5" stroke-width="2.5" stroke-linecap="round" stroke-linejoin="round"/>
<path d="M24.9932 14.3959L26.7672 12.6285" stroke="#68CBF5" stroke-width="2.5" stroke-linecap="round" stroke-linejoin="round"/>
<path d="M12.6045 26.746L14.3786 24.9786" stroke="#68CBF5" stroke-width="2.5" stroke-linecap="round" stroke-linejoin="round"/>
<path d="M13.2295 12.6285L15.0036 14.3959" stroke="#68CBF5" stroke-width="2.5" stroke-linecap="round" stroke-linejoin="round"/>
</svg>
