<svg width="40" height="40" viewBox="0 0 40 40" fill="none" xmlns="http://www.w3.org/2000/svg">
<path fill-rule="evenodd" clip-rule="evenodd" d="M26.6689 35.0062H13.33C8.72568 35.0062 4.99316 31.2736 4.99316 26.6693V13.3305C4.99316 8.72617 8.72568 4.99365 13.33 4.99365H26.6689C31.2731 4.99365 35.0057 8.72617 35.0057 13.3305V26.6693C35.0057 31.2736 31.2731 35.0062 26.6689 35.0062Z" fill="#FFBC99" stroke="#FFBC99" stroke-width="2.5" stroke-linecap="round" stroke-linejoin="round"/>
<path d="M24.5845 21.5296C24.5845 18.9972 22.5317 16.9443 19.9993 16.9443C17.4669 16.9443 15.4141 18.9972 15.4141 21.5296C15.4142 23.7946 16.2667 25.9766 17.802 27.6419" stroke="#FF9055" stroke-width="2.5" stroke-linecap="round" stroke-linejoin="round"/>
<path d="M29.1681 21.5285C29.1681 16.4637 25.0624 12.358 19.9976 12.358C14.9329 12.358 10.8271 16.4637 10.8271 21.5285C10.8332 23.653 11.3361 25.7466 12.2956 27.6421" stroke="#FF9055" stroke-width="2.5" stroke-linecap="round" stroke-linejoin="round"/>
<path d="M24.5852 26.1135C23.3692 26.1135 22.2029 25.6305 21.343 24.7705C20.483 23.9106 20 22.7444 20 21.5283" stroke="#FF9055" stroke-width="2.5" stroke-linecap="round" stroke-linejoin="round"/>
</svg>
