<svg width="40" height="40" viewBox="0 0 40 40" fill="none" xmlns="http://www.w3.org/2000/svg">
<path fill-rule="evenodd" clip-rule="evenodd" d="M11.02 20.0316C10.365 18.6066 10 17.045 10 15.4C10 8.70498 15.9967 3.33331 23.3333 3.33331C30.67 3.33331 36.6667 8.70498 36.6667 15.4C36.6667 19.3566 34.5633 22.84 31.335 25.0366C31.3367 26.2966 31.3333 27.995 31.3333 29.7783L26.1017 27.2016C25.2067 27.3733 24.2817 27.4666 23.3333 27.4666C22.1483 27.4666 21.0033 27.3133 19.9067 27.05" fill="#FFA7FB"/>
<path d="M11.02 20.0316C10.365 18.6066 10 17.045 10 15.4C10 8.70498 15.9967 3.33331 23.3333 3.33331C30.67 3.33331 36.6667 8.70498 36.6667 15.4C36.6667 19.3566 34.5633 22.84 31.335 25.0366C31.3367 26.2966 31.3333 27.995 31.3333 29.7783L26.1017 27.2016C25.2067 27.3733 24.2817 27.4666 23.3333 27.4666C22.1483 27.4666 21.0033 27.3133 19.9067 27.05" stroke="#FFA7FB" stroke-width="2.5" stroke-linecap="round" stroke-linejoin="round"/>
<path d="M23.333 16.7399C23.333 15.6449 24.0097 15.0516 24.688 14.5949C25.3514 14.1482 26.0147 13.5666 26.0147 12.4949C26.0147 11.0132 24.8147 9.81323 23.333 9.81323C21.8514 9.81323 20.6514 11.0132 20.6514 12.4949" stroke="#FFCEFD" stroke-width="2.5" stroke-linecap="round" stroke-linejoin="round"/>
<path d="M23.3333 20.7633C23.2417 20.7633 23.1667 20.8383 23.1667 20.93C23.1667 21.0217 23.2417 21.0967 23.3333 21.0967C23.425 21.0967 23.5 21.0217 23.5 20.93C23.5 20.8383 23.425 20.7633 23.3333 20.7633" stroke="#FFCEFD" stroke-width="2.5" stroke-linecap="round" stroke-linejoin="round"/>
<path fill-rule="evenodd" clip-rule="evenodd" d="M11.8047 36.355C10.5747 36.355 9.40967 36.0833 8.36301 35.5983L3.33301 36.6667L4.38467 31.6267C3.89634 30.5767 3.62301 29.4067 3.62301 28.1733C3.62301 23.66 7.28134 20 11.7963 20C16.3113 20 19.9697 23.66 19.9697 28.1733C19.9697 32.6867 16.3097 36.3467 11.7963 36.3467" fill="#FFCEFD"/>
<path d="M11.8047 36.355C10.5747 36.355 9.40967 36.0833 8.36301 35.5983L3.33301 36.6667L4.38467 31.6267C3.89634 30.5767 3.62301 29.4067 3.62301 28.1733C3.62301 23.66 7.28134 20 11.7963 20C16.3113 20 19.9697 23.66 19.9697 28.1733C19.9697 32.6867 16.3097 36.3467 11.7963 36.3467" stroke="#FFCEFD" stroke-width="2.5" stroke-linecap="round" stroke-linejoin="round"/>
<path fill-rule="evenodd" clip-rule="evenodd" d="M7.99187 28.2743C8.02441 28.3069 8.02441 28.3597 7.99187 28.3922C7.95932 28.4247 7.90656 28.4247 7.87402 28.3922C7.84147 28.3597 7.84147 28.3069 7.87402 28.2743C7.90656 28.2418 7.95932 28.2418 7.99187 28.2743Z" fill="#FFA7FB"/>
<path d="M7.99187 28.2743C8.02441 28.3069 8.02441 28.3597 7.99187 28.3922C7.95932 28.4247 7.90656 28.4247 7.87402 28.3922C7.84147 28.3597 7.84147 28.3069 7.87402 28.2743C7.90656 28.2418 7.95932 28.2418 7.99187 28.2743" stroke="#FFA7FB" stroke-width="2.5" stroke-linecap="round" stroke-linejoin="round"/>
<path fill-rule="evenodd" clip-rule="evenodd" d="M11.7419 28.2743C11.7744 28.3069 11.7744 28.3597 11.7419 28.3922C11.7093 28.4247 11.6566 28.4247 11.624 28.3922C11.5915 28.3597 11.5915 28.3069 11.624 28.2743C11.6566 28.2418 11.7093 28.2418 11.7419 28.2743Z" fill="#FFA7FB"/>
<path d="M11.7419 28.2743C11.7744 28.3069 11.7744 28.3597 11.7419 28.3922C11.7093 28.4247 11.6566 28.4247 11.624 28.3922C11.5915 28.3597 11.5915 28.3069 11.624 28.2743C11.6566 28.2418 11.7093 28.2418 11.7419 28.2743" stroke="#FFA7FB" stroke-width="2.5" stroke-linecap="round" stroke-linejoin="round"/>
<path fill-rule="evenodd" clip-rule="evenodd" d="M15.4919 28.2743C15.5244 28.3069 15.5244 28.3597 15.4919 28.3922C15.4593 28.4247 15.4066 28.4247 15.374 28.3922C15.3415 28.3597 15.3415 28.3069 15.374 28.2743C15.4066 28.2418 15.4593 28.2418 15.4919 28.2743Z" fill="#FFA7FB"/>
<path d="M15.4919 28.2743C15.5244 28.3069 15.5244 28.3597 15.4919 28.3922C15.4593 28.4247 15.4066 28.4247 15.374 28.3922C15.3415 28.3597 15.3415 28.3069 15.374 28.2743C15.4066 28.2418 15.4593 28.2418 15.4919 28.2743" stroke="#FFA7FB" stroke-width="2.5" stroke-linecap="round" stroke-linejoin="round"/>
</svg>
