<svg width="40" height="40" viewBox="0 0 40 40" fill="none" xmlns="http://www.w3.org/2000/svg">
<path d="M14.1508 19.8668L10.8008 25.1001" stroke="#FFD88D" stroke-width="2.5" stroke-linecap="round" stroke-linejoin="round"/>
<path d="M22.5 14.6334L25.85 19.8667" stroke="#FFD88D" stroke-width="2.5" stroke-linecap="round" stroke-linejoin="round"/>
<path d="M26.5833 29.2501H20" stroke="#FFD88D" stroke-width="2.5" stroke-linecap="round" stroke-linejoin="round"/>
<path fill-rule="evenodd" clip-rule="evenodd" d="M15.374 10.7534C15.374 8.20002 17.444 6.12836 19.999 6.12836C22.5524 6.12836 24.624 8.19836 24.624 10.7534C24.624 13.3067 22.554 15.3784 19.999 15.3784C17.444 15.375 15.374 13.305 15.374 10.7534Z" fill="#FFC047" stroke="#FFC047" stroke-width="2.5" stroke-linecap="round" stroke-linejoin="round"/>
<path fill-rule="evenodd" clip-rule="evenodd" d="M4.16602 29.2466C4.16602 26.6932 6.23602 24.6216 8.79102 24.6216C11.3443 24.6216 13.416 26.6916 13.416 29.2466C13.4143 31.7999 11.346 33.8716 8.79102 33.8716C6.23602 33.8716 4.16602 31.8016 4.16602 29.2466Z" fill="#FFC047" stroke="#FFC047" stroke-width="2.5" stroke-linecap="round" stroke-linejoin="round"/>
<path fill-rule="evenodd" clip-rule="evenodd" d="M26.585 29.2466C26.585 26.6932 28.655 24.6216 31.21 24.6216C33.7633 24.6216 35.835 26.6916 35.835 29.2466C35.835 31.7999 33.765 33.8716 31.21 33.8716C28.6533 33.8716 26.585 31.8016 26.585 29.2466H26.585Z" fill="#FFC047" stroke="#FFC047" stroke-width="2.5" stroke-linecap="round" stroke-linejoin="round"/>
</svg>
